<?xml version="1.0" standalone="no"?><!DOCTYPE svg PUBLIC "-//W3C//DTD SVG 1.1//EN" "http://www.w3.org/Graphics/SVG/1.1/DTD/svg11.dtd"><svg t="1587523853594" class="icon" viewBox="0 0 1024 1024" version="1.1" xmlns="http://www.w3.org/2000/svg" p-id="4656" id="mx_n_1587523853596" xmlns:xlink="http://www.w3.org/1999/xlink" width="200" height="200"><defs><style type="text/css"></style></defs><path d="M424.718665 4.877062h169.801376c112.968677-2.388765 235.392881 32.148795 312.629615 111.973358 79.824563 77.236734 114.362123 199.660938 111.973358 312.629615v169.801376c2.388765 112.968677-32.148795 235.392881-111.973358 312.629615-77.236734 79.824563-199.660938 114.362123-312.629615 111.973358H424.718665c-112.968677 2.388765-235.392881-32.148795-312.629615-111.973358C32.264487 834.674292-2.273073 712.349619 0.115692 599.281411V429.480035C-2.273073 316.511358 32.264487 194.087154 112.08905 116.85042 189.325784 37.125389 311.749988 2.488297 424.718665 4.877062z" fill="#FF2A8E" p-id="4657" data-spm-anchor-id="a313x.7781069.0.i5" class=""></path><path d="M112.08905 112.471017C36.743421 185.427881 1.708202 298.595621 0.115692 406.090044c137.353986 0 248.730152-111.475698 248.730152-248.829684 0-42.599642-10.749442-82.710987-29.560966-117.746206-40.409941 17.816205-77.236734 42.002451-107.195828 72.956863z" fill="#FFFFFF" opacity=".5" p-id="4658"></path><path d="M627.066964 806.009112H392.171742c-59.818656 0-108.290678-48.472022-108.290678-108.290678 0-112.172422 90.972132-203.144554 203.144554-203.144554h45.386534C644.584573 494.57388 735.556706 585.546012 735.556706 697.718434c-0.099532 59.719124-48.671086 108.290678-108.489742 108.290678zM444.027848 670.347169c-8.957869-8.957869-23.489522-8.957869-32.447391 0l-4.379402 4.379402c-0.796255 0.796255-2.090169 0.796255-2.886424 0l-4.379403-4.379402c-8.957869-8.957869-23.489522-8.957869-32.447391 0s-8.957869 23.489522 0 32.447391l30.954413 30.954412c4.080807 4.080807 10.64991 4.080807 14.631185 0l25.082033-25.082032 5.87238-5.87238c8.957869-8.957869 8.957869-23.489522 0-32.447391z" fill="#FFFFFF" p-id="4659"></path><path d="M509.619353 497.062177c-75.743756 0-137.05539-61.411166-137.05539-137.05539S433.875597 222.851865 509.619353 222.851865s137.05539 61.411166 137.05539 137.05539S585.363109 497.062177 509.619353 497.062177z m-32.248327-144.818876c0-8.460209-6.867699-15.228377-15.228377-15.228377-8.460209 0-15.228377 6.867699-15.228377 15.228377v15.228376c0 8.460209 6.867699 15.228377 15.228377 15.228377 8.460209 0 15.228377-6.867699 15.228377-15.228377v-15.228376z m66.089164 0.099532c0-8.460209-6.867699-15.228377-15.228377-15.228377s-15.228377 6.867699-15.228376 15.228377v15.228376c0 8.460209 6.867699 15.228377 15.228376 15.228377s15.228377-6.867699 15.228377-15.228377V352.342833z" fill="#FFFFFF" p-id="4660"></path><path d="M735.457174 697.618902c0-64.596186-30.158158-122.225141-77.236734-159.450061 19.607779 83.905369 35.433347 92.166515 23.987182 140.937133-7.564422 32.347859-57.828019 52.353766-24.186246 122.324672 44.789343-13.237739 77.435798-54.642999 77.435798-103.811744z" fill="#FF2A8E" opacity=".5" p-id="4661"></path><path d="M620.995519 396.83358c0 18.512928-2.786892 36.428666-8.062081 53.249552 21.100757-24.086713 33.840837-55.638317 33.840837-90.175877 0-75.743756-61.411166-137.05539-137.05539-137.05539-6.668636 0-13.237739 0.497659-19.607779 1.393446 75.44516 21.001225 130.884414 90.275409 130.884413 172.588269z" fill="#FF2A8E" opacity=".5" p-id="4662"></path></svg>