<?xml version="1.0" standalone="no"?><!DOCTYPE svg PUBLIC "-//W3C//DTD SVG 1.1//EN" "http://www.w3.org/Graphics/SVG/1.1/DTD/svg11.dtd"><svg class="icon" width="200px" height="200.00px" viewBox="0 0 1024 1024" version="1.1" xmlns="http://www.w3.org/2000/svg"><path d="M672 672m-240 0a240 240 0 1 0 480 0 240 240 0 1 0-480 0Z" fill="#E6F1FD" /><path d="M925.2 338.5c-22.6-53.7-55-101.9-96.3-143.3-41.3-41.3-89.5-73.8-143.2-96.3-55-23.1-113.4-34.8-173.5-34.8h-2c-60.6 0.3-119.3 12.3-174.5 35.9-53.3 22.8-101.1 55.2-142 96.5-40.8 41.3-73 89.3-95.1 142.8-23 55.4-34.6 114.3-34.3 174.8 0.3 69.4 16.9 138.3 48 199.9v152c0 25.4 20.6 46 46 46h152.1c61.5 31.1 130.4 47.7 199.9 48h2.1c59.9 0 118-11.6 172.7-34.3 53.5-22.3 101.6-54.3 142.8-95.2 41.3-40.9 73.8-88.7 96.5-142C948 633.3 960 574.6 960.3 514c0-60.8-11.8-119.9-35.1-175.5z m-160 428.9c-67.6 67-157.5 103.9-253.1 103.9h-1.6c-58.2-0.3-116.1-14.7-167.2-42l-8.1-4.4h-136V689l-4.4-8.1c-27.2-51.1-41.7-109-42-167.2-0.4-96.3 36.4-186.6 104-254.8 67.4-68.1 157.5-105.8 253.8-106.2h1.6c48.3 0 95.1 9.3 139.3 27.9 43.1 18 81.7 44.1 115 77.3 33.1 33.2 59.2 71.9 77.2 115 18.8 44.6 28.2 92 27.9 140.8-0.7 96.2-38.4 186.3-106.4 253.7z" fill="#53A4FC" /><path d="M738.8 568c-30.1 0-54.4-25-54.4-56s24.3-56 54.4-56c30.1 0 54.4 25 54.4 56 0.1 31-24.3 56-54.4 56zM512.1 568c-30.1 0-54.4-25-54.4-56s24.3-56 54.4-56c30.1 0 54.4 25 54.4 56-0.1 31-24.4 56-54.4 56z" fill="#53A4FC" /><path d="M230.9 512a54.4 56 0 1 0 108.8 0 54.4 56 0 1 0-108.8 0Z" fill="#53A4FC" /></svg>