<?xml version="1.0" standalone="no"?><!DOCTYPE svg PUBLIC "-//W3C//DTD SVG 1.1//EN" "http://www.w3.org/Graphics/SVG/1.1/DTD/svg11.dtd"><svg t="1577207217159" class="icon" viewBox="0 0 1029 1024" version="1.1" xmlns="http://www.w3.org/2000/svg" p-id="85238" xmlns:xlink="http://www.w3.org/1999/xlink" width="200.9765625" height="200"><defs><style type="text/css"></style></defs><path d="M355.899778 131.875919L472.908654 14.753663a56.690347 56.690347 0 0 1 80.16015 0l117.008876 117.008875h165.535812a56.690347 56.690347 0 0 1 56.690347 56.690347v165.535812l117.008875 117.008876a56.690347 56.690347 0 0 1 0 80.16015l-117.008875 117.008876v165.535812a56.690347 56.690347 0 0 1-56.690347 56.690347h-165.535812l-117.008876 117.008875a56.690347 56.690347 0 0 1-80.16015 0L355.899778 890.392758h-165.535812a56.690347 56.690347 0 0 1-56.690347-56.690347v-165.535812L16.664744 551.214414a56.690347 56.690347 0 0 1 0-80.160151L133.73031 354.045388v-165.535813a56.690347 56.690347 0 0 1 56.690346-56.690346h165.535813z" fill="#32BA59" p-id="85239"></path><path d="M456.525144 631.771396c21.145499-3.004588 31.519833-18.02753 31.519833-35.99837 0-13.662374-3.684873-25.567346-17.460627-31.916665-26.587773-10.544404-46.316013-30.612787-52.381881-54.706185l-28.288483-88.833773a86.169327 86.169327 0 0 1-5.952486-31.406452C383.9615 331.142488 441.728963 284.372952 512.988729 284.372952s129.027229 46.769536 129.027229 104.536999c0 10.941237-2.097543 21.542332-5.952486 31.463142l-28.345174 88.777083c-6.009177 24.093397-25.794108 44.21847-52.43857 54.706185-13.719064 6.235938-16.723652 18.254292-16.723652 31.916665 0 17.91415 9.694049 32.880401 30.839548 35.94168l1.700711 0.340142c43.991709 8.276791 105.330664 29.3656 122.337768 53.288926 17.177175 24.150088 17.91415 33.447305 17.914149 52.551951h-396.832427c0-18.707814 0-28.005031 17.177175-52.608642 16.950414-24.206778 78.912963-44.898755 122.961362-53.175545a353.747763 353.747763 0 0 1 1.870782-0.340142z" fill="#FFFFFF" p-id="85240"></path></svg>