<?xml version="1.0" standalone="no"?><!DOCTYPE svg PUBLIC "-//W3C//DTD SVG 1.1//EN" "http://www.w3.org/Graphics/SVG/1.1/DTD/svg11.dtd"><svg t="1578655237355" class="icon" viewBox="0 0 1024 1024" version="1.1" xmlns="http://www.w3.org/2000/svg" p-id="17956" xmlns:xlink="http://www.w3.org/1999/xlink" width="200" height="200"><defs><style type="text/css"></style></defs><path d="M163.84 878.592a347.136 65.024 0 1 0 694.272 0 347.136 65.024 0 1 0-694.272 0Z" fill="#F7F7F9" p-id="17957"></path><path d="M788.48 687.616l-122.368-150.528c-5.632-7.168-14.336-11.264-23.552-11.264H379.392c-9.216 0-17.408 4.096-23.552 11.264l-122.368 150.528v78.848H788.48v-78.848z" fill="#AEB8C2" p-id="17958"></path><path d="M753.152 772.608l-107.008-128.512c-5.12-6.144-12.8-9.728-20.48-9.728H395.776c-7.68 0-15.36 3.584-20.48 9.728l-107.008 128.512v70.656h485.376v-70.656h-0.512z" fill="#000000" p-id="17959"></path><path d="M336.896 331.264h347.648c11.264 0 20.48 9.216 20.48 20.48V829.44c0 11.264-9.216 20.48-20.48 20.48H336.896c-11.264 0-20.48-9.216-20.48-20.48V351.744c0-11.264 9.216-20.48 20.48-20.48z" fill="#F5F5F7" p-id="17960"></path><path d="M382.464 381.952h257.024c5.632 0 10.24 4.608 10.24 10.24v128c0 5.632-4.608 10.24-10.24 10.24H382.464c-5.632 0-10.24-4.608-10.24-10.24v-128c0-5.632 4.608-10.24 10.24-10.24z m1.024 203.776h254.464c6.144 0 11.776 5.12 11.776 11.776 0 6.656-5.12 11.776-11.776 11.776H383.488c-6.144 0-11.776-5.12-11.776-11.776 0-6.656 5.632-11.776 11.776-11.776z m0 60.416h254.464c6.144 0 11.776 5.12 11.776 11.776 0 6.656-5.12 11.776-11.776 11.776H383.488c-6.144 0-11.776-5.12-11.776-11.776 0-6.656 5.632-11.776 11.776-11.776z m403.968 222.72c-4.096 15.872-17.92 27.648-34.304 27.648H268.8c-16.384 0-30.72-11.776-34.304-27.648-0.512-3.072-1.024-6.144-1.024-9.216v-172.032h134.656c14.848 0 26.624 12.288 26.624 27.648 0 15.36 12.288 27.648 27.136 27.648h178.176c14.848 0 27.136-12.288 27.136-27.648 0-15.36 11.776-27.648 26.624-27.648H788.48v172.032c0 3.072 0 6.144-1.024 9.216zM804.352 339.456l-34.816 13.824c-2.048 0.512-4.096 0.512-5.12-1.024-1.536-1.536-2.048-3.584-1.536-5.12l9.728-31.744c-13.312-14.848-20.992-33.28-20.992-53.248 0-51.2 51.712-92.672 115.712-92.672 64 0 115.712 41.472 115.712 92.672 0 51.2-51.712 92.672-115.712 92.672-23.04-0.512-44.544-6.144-62.976-15.36z" fill="#DCE0E6" p-id="17961"></path><path d="M912.896 278.528c-8.192 0-14.336-6.656-14.336-14.336 0-7.68 6.656-14.336 14.336-14.336 7.68 0 14.336 6.656 14.336 14.336 0 7.68-6.144 14.336-14.336 14.336z m-76.8-2.048h-29.184l14.848-25.088 14.336 25.088z m18.432-25.088h25.6V276.48h-25.6v-25.088z" fill="#FFFFFF" p-id="17962"></path></svg>