<?xml version="1.0" standalone="no"?><!DOCTYPE svg PUBLIC "-//W3C//DTD SVG 1.1//EN" "http://www.w3.org/Graphics/SVG/1.1/DTD/svg11.dtd"><svg t="1577327504881" class="icon" viewBox="0 0 1024 1024" version="1.1" xmlns="http://www.w3.org/2000/svg" p-id="5853" xmlns:xlink="http://www.w3.org/1999/xlink" width="200" height="200"><defs><style type="text/css"></style></defs><path d="M384 469.568h255.872v42.112H384v-42.112z" fill="#e74b37" p-id="5854"></path><path d="M955.584 393.216V256l-118.848-68.672-68.544-118.656H630.848L512 0 393.344 68.672H256.064L187.456 187.328 68.608 256v137.216L0 512l68.608 118.848V768l118.784 68.544L256 955.328h137.28L512 1024l118.848-68.608h137.28l68.544-118.784L955.584 768V630.848L1024 512l-68.416-118.784z m-208.896 353.664c0 6.272 0.768 17.92-2.24 22.592a37.504 37.504 0 0 1-11.328 11.328 56.576 56.576 0 0 1-15.296 6.656 67.136 67.136 0 0 1-16.64 2.176h-403.2V437.184c0-5.888 1.472-11.136 4.416-15.808s6.784-8.512 11.648-11.648a52.352 52.352 0 0 1 15.808-6.912c5.696-1.472 11.2-2.24 16.32-2.24h379.456l-0.32 138.944a29.12 29.12 0 0 1-4.352 15.872 37.888 37.888 0 0 1-11.392 11.392 57.216 57.216 0 0 1-15.552 6.912 58.368 58.368 0 0 1-16.32 2.56H384v21.312l362.688 0.704v148.608zM768 384.192h-85.312v-42.624H341.312v42.688H256V318.016a32.64 32.64 0 0 1 9.92-23.808v0.512a48 48 0 0 1 17.472-12.672 53.248 53.248 0 0 1 21.312-4.48h164.608v-21.376h85.376v21.312H768v106.688z" fill="#e74b37" p-id="5855"></path><path d="M384 682.88h277.312v42.688H384v-42.688z" fill="#e74b37" p-id="5856"></path></svg>