<?xml version="1.0" standalone="no"?><!DOCTYPE svg PUBLIC "-//W3C//DTD SVG 1.1//EN" "http://www.w3.org/Graphics/SVG/1.1/DTD/svg11.dtd"><svg t="1577205725570" class="icon" viewBox="0 0 1024 1024" version="1.1" xmlns="http://www.w3.org/2000/svg" p-id="6515" xmlns:xlink="http://www.w3.org/1999/xlink" width="200" height="200"><defs><style type="text/css"></style></defs><path d="M268.929293 641.292929h486.141414v343.381334a36.822626 36.822626 0 0 1-53.496242 32.809373l-186.926546-95.035474-192.512 95.769858A36.822626 36.822626 0 0 1 268.929293 985.253495V641.292929z" fill="#F45C50" p-id="6516"></path><path d="M465.454545 946.50699l-145.066666 73.676283c-17.573495 8.91604-38.932687 1.675636-47.703919-16.187475A36.636444 36.636444 0 0 1 268.929293 987.839354V744.727273l196.525252 201.779717z" fill="#F47D74" p-id="6517"></path><path d="M517.171717 641.292929h248.242424v346.184404c0 20.169697-16.673616 36.522667-37.236363 36.522667-5.895758 0-11.688081-1.365333-16.932202-3.992566l-191.363879-95.852606-2.70998 1.32396V641.292929z" fill="#CF3A2E" p-id="6518"></path><path d="M765.414141 920.462222v67.211637c0 20.066263-16.673616 36.326141-37.236363 36.326141-5.895758 0-11.688081-1.365333-16.932202-3.971879l-191.363879-95.335434-2.70998 1.323959V672.323232l248.242424 248.13899z" fill="#E4483C" p-id="6519"></path><path d="M456.321293 779.998384l-62.329535 19.78699a85.902222 85.902222 0 0 1-106.196041-51.13794l-28.971959-75.610505a134.981818 134.981818 0 0 0-50.910384-63.85002L140.639677 564.130909a85.902222 85.902222 0 0 1-26.23095-114.915555l41.063435-69.797495a134.981818 134.981818 0 0 0 18.16307-79.603071l-6.702545-80.699475a85.902222 85.902222 0 0 1 73.490101-92.16l80.161616-11.408808a134.981818 134.981818 0 0 0 73.572849-35.436606l58.905858-55.544242a85.902222 85.902222 0 0 1 117.873778 0l58.905858 55.544242a134.981818 134.981818 0 0 0 73.572849 35.436606l80.161616 11.419152a85.902222 85.902222 0 0 1 73.490101 92.149656l-6.702545 80.699475a134.981818 134.981818 0 0 0 18.173414 79.603071l41.053091 69.797495a85.902222 85.902222 0 0 1-26.23095 114.915555L816.09697 609.186909a134.981818 134.981818 0 0 0-50.910384 63.85002l-28.97196 75.610505a85.902222 85.902222 0 0 1-106.19604 51.13794l-62.329535-19.776647a184.061414 184.061414 0 0 0-111.357415 0z" fill="#FFE47C" p-id="6520"></path><path d="M517.171717 0c21.410909 0 42.821818 7.840323 59.547152 23.52097l59.526464 55.844202a136.688485 136.688485 0 0 0 74.348606 35.612444l80.989091 11.481212c45.511111 6.44396 78.072242 47.062626 74.265859 92.615111l-6.77495 81.113213a135.085253 135.085253 0 0 0 18.359596 80.016808l41.477172 70.149171c23.303758 39.408485 11.688081 90.049939-26.499879 115.494788l-67.966707 45.304243a135.809293 135.809293 0 0 0-51.448242 64.170666l-29.271919 76.003556c-16.446061 42.687354-63.508687 65.225697-107.302788 51.406869l-62.991515-19.890425A186.885172 186.885172 0 0 0 517.171717 774.17503V0z" fill="#FFD200" p-id="6521"></path><path d="M258.585859 658.080323L789.897051 124.121212a85.457455 85.457455 0 0 1 66.684121 90.536081l-6.661172 80.296081a134.433616 134.433616 0 0 0 18.049293 79.21002l40.804848 69.445818a85.529859 85.529859 0 0 1-26.065454 114.32598l-66.85996 44.849131a134.278465 134.278465 0 0 0-50.589737 63.519031L736.452525 741.541495a85.333333 85.333333 0 0 1-105.53406 50.889697l-61.946829-19.693899a182.716768 182.716768 0 0 0-110.664404 0l-61.946828 19.683555a85.333333 85.333333 0 0 1-105.534061-50.889696l-28.785777-75.227798c-1.065374-2.782384-2.223838-5.523394-3.465051-8.223031z" fill="#FFB833" p-id="6522"></path><path d="M512 418.909091m-243.070707 0a243.070707 243.070707 0 1 0 486.141414 0 243.070707 243.070707 0 1 0-486.141414 0Z" fill="#F78C1A" p-id="6523"></path><path d="M620.275071 448.801616l-148.862707 102.4A36.822626 36.822626 0 0 1 413.737374 520.864323V316.095354a36.822626 36.822626 0 0 1 57.67499-30.32695l148.862707 102.389657a36.822626 36.822626 0 0 1 0 60.664242z" fill="#FFE47C" p-id="6524"></path><path d="M610.262626 455.669657l-140.029414 96.555959c-16.68396 11.512242-39.24299 6.857697-50.372525-10.374464A38.415515 38.415515 0 0 1 413.737374 521.019475V313.902545c0-1.210182 0.051717-2.41002 0.165495-3.599515L610.262626 455.669657z" fill="#FFD200" p-id="6525"></path><path d="M413.737374 509.434828L564.989414 351.676768l50.20703 35.353858c16.259879 11.460525 20.645495 34.650505 9.784889 51.810263-2.585859 4.085657-5.906101 7.602424-9.784889 10.322747l-146.390626 103.09301c-16.259879 11.450182-38.25002 6.826667-49.110626-10.33309A38.829253 38.829253 0 0 1 413.737374 521.18497v-11.750142z" fill="#FFC300" p-id="6526"></path></svg>