<?xml version="1.0" standalone="no"?><!DOCTYPE svg PUBLIC "-//W3C//DTD SVG 1.1//EN" "http://www.w3.org/Graphics/SVG/1.1/DTD/svg11.dtd"><svg class="icon" width="200px" height="200.00px" viewBox="0 0 1024 1024" version="1.1" xmlns="http://www.w3.org/2000/svg"><path d="M972.8 51.2v716.8H51.2V51.2h921.6zM256 332.8a76.8 76.8 0 1 0 0 153.6 76.8 76.8 0 0 0 0-153.6z m256 0a76.8 76.8 0 1 0 0 153.6 76.8 76.8 0 0 0 0-153.6z m256 0a76.8 76.8 0 1 0 0 153.6 76.8 76.8 0 0 0 0-153.6z" fill="#1110F5" /><path d="M512 768h307.2l-307.2 204.8z" fill="#F71D1F" /></svg>